<svg width="761" height="147" viewBox="0 0 761 147" fill="none" xmlns="http://www.w3.org/2000/svg">
<path d="M183.069 50.4687H204.398C213.523 50.4687 220.429 51.75 225.116 54.3125C229.804 56.875 232.148 61.375 232.148 67.8125C232.148 70.4062 231.726 72.75 230.882 74.8437C230.069 76.9375 228.882 78.6562 227.319 80C225.757 81.3437 223.851 82.2187 221.601 82.625V83.0937C223.882 83.5625 225.944 84.375 227.788 85.5312C229.632 86.6562 231.101 88.3125 232.194 90.5C233.319 92.6562 233.882 95.5312 233.882 99.125C233.882 103.281 232.866 106.844 230.835 109.812C228.804 112.781 225.898 115.062 222.116 116.656C218.366 118.219 213.898 119 208.71 119H183.069V50.4687ZM197.601 77.6094H206.038C210.257 77.6094 213.179 76.9531 214.804 75.6406C216.429 74.2969 217.241 72.3281 217.241 69.7344C217.241 67.1094 216.273 65.2344 214.335 64.1094C212.429 62.9531 209.398 62.375 205.241 62.375H197.601V77.6094ZM197.601 89.1406V107H207.069C211.444 107 214.491 106.156 216.21 104.469C217.929 102.781 218.788 100.516 218.788 97.6719C218.788 95.9844 218.413 94.5 217.663 93.2187C216.913 91.9375 215.648 90.9375 213.866 90.2187C212.116 89.5 209.694 89.1406 206.601 89.1406H197.601ZM260.741 66.5937V119H246.444V66.5937H260.741ZM253.616 46.0625C255.741 46.0625 257.569 46.5625 259.101 47.5625C260.632 48.5312 261.398 50.3594 261.398 53.0469C261.398 55.7031 260.632 57.5469 259.101 58.5781C257.569 59.5781 255.741 60.0781 253.616 60.0781C251.46 60.0781 249.616 59.5781 248.085 58.5781C246.585 57.5469 245.835 55.7031 245.835 53.0469C245.835 50.3594 246.585 48.5312 248.085 47.5625C249.616 46.5625 251.46 46.0625 253.616 46.0625ZM323.413 92.7031C323.413 97.0781 322.819 100.953 321.632 104.328C320.476 107.703 318.773 110.562 316.523 112.906C314.304 115.219 311.616 116.969 308.46 118.156C305.335 119.344 301.804 119.937 297.866 119.937C294.179 119.937 290.788 119.344 287.694 118.156C284.632 116.969 281.96 115.219 279.679 112.906C277.429 110.562 275.679 107.703 274.429 104.328C273.21 100.953 272.601 97.0781 272.601 92.7031C272.601 86.8906 273.632 81.9687 275.694 77.9375C277.757 73.9062 280.694 70.8437 284.507 68.75C288.319 66.6562 292.866 65.6094 298.148 65.6094C303.054 65.6094 307.398 66.6562 311.179 68.75C314.991 70.8437 317.976 73.9062 320.132 77.9375C322.319 81.9687 323.413 86.8906 323.413 92.7031ZM287.179 92.7031C287.179 96.1406 287.554 99.0312 288.304 101.375C289.054 103.719 290.226 105.484 291.819 106.672C293.413 107.859 295.491 108.453 298.054 108.453C300.585 108.453 302.632 107.859 304.194 106.672C305.788 105.484 306.944 103.719 307.663 101.375C308.413 99.0312 308.788 96.1406 308.788 92.7031C308.788 89.2344 308.413 86.3594 307.663 84.0781C306.944 81.7656 305.788 80.0312 304.194 78.875C302.601 77.7187 300.523 77.1406 297.96 77.1406C294.179 77.1406 291.429 78.4375 289.71 81.0312C288.023 83.625 287.179 87.5156 287.179 92.7031Z" fill="#00BE6D"/>
<path d="M376.804 99.9687C376.804 104.031 375.819 107.562 373.851 110.562C371.882 113.562 369.007 115.875 365.226 117.5C361.476 119.125 356.913 119.937 351.538 119.937C349.163 119.937 346.835 119.781 344.554 119.469C342.304 119.156 340.132 118.703 338.038 118.109C335.976 117.484 334.007 116.719 332.132 115.812V102.312C335.382 103.75 338.757 105.047 342.257 106.203C345.757 107.359 349.226 107.937 352.663 107.937C355.038 107.937 356.944 107.625 358.382 107C359.851 106.375 360.913 105.516 361.569 104.422C362.226 103.328 362.554 102.078 362.554 100.672C362.554 98.9531 361.976 97.4844 360.819 96.2656C359.663 95.0469 358.069 93.9062 356.038 92.8437C354.038 91.7812 351.773 90.6406 349.241 89.4219C347.648 88.6719 345.913 87.7656 344.038 86.7031C342.163 85.6094 340.382 84.2812 338.694 82.7187C337.007 81.1562 335.616 79.2656 334.523 77.0469C333.46 74.7969 332.929 72.1094 332.929 68.9844C332.929 64.8906 333.866 61.3906 335.741 58.4844C337.616 55.5781 340.288 53.3594 343.757 51.8281C347.257 50.2656 351.382 49.4844 356.132 49.4844C359.694 49.4844 363.085 49.9062 366.304 50.75C369.554 51.5625 372.944 52.75 376.476 54.3125L371.788 65.6094C368.632 64.3281 365.804 63.3437 363.304 62.6562C360.804 61.9375 358.257 61.5781 355.663 61.5781C353.851 61.5781 352.304 61.875 351.023 62.4687C349.741 63.0312 348.773 63.8437 348.116 64.9062C347.46 65.9375 347.132 67.1406 347.132 68.5156C347.132 70.1406 347.601 71.5156 348.538 72.6406C349.507 73.7344 350.944 74.7969 352.851 75.8281C354.788 76.8594 357.194 78.0625 360.069 79.4375C363.569 81.0937 366.554 82.8281 369.023 84.6406C371.523 86.4219 373.444 88.5312 374.788 90.9687C376.132 93.375 376.804 96.375 376.804 99.9687ZM435.726 92.7031C435.726 97.0781 435.132 100.953 433.944 104.328C432.788 107.703 431.085 110.562 428.835 112.906C426.616 115.219 423.929 116.969 420.773 118.156C417.648 119.344 414.116 119.937 410.179 119.937C406.491 119.937 403.101 119.344 400.007 118.156C396.944 116.969 394.273 115.219 391.991 112.906C389.741 110.562 387.991 107.703 386.741 104.328C385.523 100.953 384.913 97.0781 384.913 92.7031C384.913 86.8906 385.944 81.9687 388.007 77.9375C390.069 73.9062 393.007 70.8437 396.819 68.75C400.632 66.6562 405.179 65.6094 410.46 65.6094C415.366 65.6094 419.71 66.6562 423.491 68.75C427.304 70.8437 430.288 73.9062 432.444 77.9375C434.632 81.9687 435.726 86.8906 435.726 92.7031ZM399.491 92.7031C399.491 96.1406 399.866 99.0312 400.616 101.375C401.366 103.719 402.538 105.484 404.132 106.672C405.726 107.859 407.804 108.453 410.366 108.453C412.898 108.453 414.944 107.859 416.507 106.672C418.101 105.484 419.257 103.719 419.976 101.375C420.726 99.0312 421.101 96.1406 421.101 92.7031C421.101 89.2344 420.726 86.3594 419.976 84.0781C419.257 81.7656 418.101 80.0312 416.507 78.875C414.913 77.7187 412.835 77.1406 410.273 77.1406C406.491 77.1406 403.741 78.4375 402.023 81.0312C400.335 83.625 399.491 87.5156 399.491 92.7031ZM476.507 77.3281H464.132V119H449.835V77.3281H441.96V70.4375L449.835 66.5937V62.75C449.835 58.2812 450.585 54.8125 452.085 52.3437C453.616 49.8437 455.757 48.0937 458.507 47.0937C461.288 46.0625 464.569 45.5469 468.351 45.5469C471.132 45.5469 473.663 45.7812 475.944 46.25C478.226 46.6875 480.085 47.1875 481.523 47.75L477.866 58.25C476.773 57.9062 475.585 57.5937 474.304 57.3125C473.023 57.0312 471.554 56.8906 469.898 56.8906C467.898 56.8906 466.429 57.5 465.491 58.7187C464.585 59.9062 464.132 61.4375 464.132 63.3125V66.5937H476.507V77.3281ZM506.835 108.547C508.398 108.547 509.913 108.391 511.382 108.078C512.882 107.766 514.366 107.375 515.835 106.906V117.547C514.304 118.234 512.398 118.797 510.116 119.234C507.866 119.703 505.398 119.937 502.71 119.937C499.585 119.937 496.773 119.437 494.273 118.437C491.804 117.406 489.851 115.641 488.413 113.141C487.007 110.609 486.304 107.094 486.304 102.594V77.3281H479.46V71.2812L487.335 66.5L491.46 55.4375H500.601V66.5937H515.273V77.3281H500.601V102.594C500.601 104.594 501.163 106.094 502.288 107.094C503.444 108.062 504.96 108.547 506.835 108.547ZM569.554 119L565.523 100.672C565.304 99.5781 564.944 97.9687 564.444 95.8437C563.944 93.6875 563.398 91.3906 562.804 88.9531C562.241 86.4844 561.71 84.2031 561.21 82.1094C560.741 80.0156 560.398 78.4844 560.179 77.5156H559.757C559.538 78.4844 559.194 80.0156 558.726 82.1094C558.257 84.2031 557.726 86.4844 557.132 88.9531C556.569 91.4219 556.038 93.75 555.538 95.9375C555.038 98.0937 554.663 99.7344 554.413 100.859L550.194 119H534.819L519.913 66.5937H534.163L540.21 89.7969C540.616 91.4219 541.007 93.3594 541.382 95.6094C541.757 97.8281 542.085 99.9844 542.366 102.078C542.679 104.141 542.913 105.781 543.069 107H543.444C543.507 106.094 543.632 104.891 543.819 103.391C544.038 101.891 544.273 100.344 544.523 98.75C544.804 97.125 545.054 95.6719 545.273 94.3906C545.523 93.0781 545.71 92.1875 545.835 91.7187L552.304 66.5937H568.054L574.194 91.7187C574.413 92.625 574.694 94.0625 575.038 96.0312C575.413 98 575.741 100.031 576.023 102.125C576.304 104.187 576.46 105.812 576.491 107H576.866C576.991 105.937 577.21 104.359 577.523 102.266C577.835 100.172 578.194 97.9844 578.601 95.7031C579.038 93.3906 579.476 91.4219 579.913 89.7969L586.194 66.5937H600.21L585.116 119H569.554ZM630.163 65.5156C637.194 65.5156 642.585 67.0469 646.335 70.1094C650.085 73.1719 651.96 77.8281 651.96 84.0781V119H641.976L639.21 111.875H638.835C637.335 113.75 635.804 115.281 634.241 116.469C632.679 117.656 630.882 118.531 628.851 119.094C626.819 119.656 624.351 119.937 621.444 119.937C618.351 119.937 615.569 119.344 613.101 118.156C610.663 116.969 608.741 115.156 607.335 112.719C605.929 110.25 605.226 107.125 605.226 103.344C605.226 97.7812 607.179 93.6875 611.085 91.0625C614.991 88.4062 620.851 86.9375 628.663 86.6562L637.757 86.375V84.0781C637.757 81.3281 637.038 79.3125 635.601 78.0312C634.163 76.75 632.163 76.1094 629.601 76.1094C627.069 76.1094 624.585 76.4687 622.148 77.1875C619.71 77.9062 617.273 78.8125 614.835 79.9062L610.101 70.25C612.882 68.7812 615.991 67.625 619.429 66.7812C622.898 65.9375 626.476 65.5156 630.163 65.5156ZM637.757 94.7187L632.226 94.9062C627.601 95.0312 624.382 95.8594 622.569 97.3906C620.788 98.9219 619.898 100.937 619.898 103.437C619.898 105.625 620.538 107.187 621.819 108.125C623.101 109.031 624.773 109.484 626.835 109.484C629.898 109.484 632.476 108.578 634.569 106.766C636.694 104.953 637.757 102.375 637.757 99.0312V94.7187ZM695.976 65.6094C696.694 65.6094 697.523 65.6562 698.46 65.75C699.429 65.8125 700.21 65.9062 700.804 66.0312L699.726 79.4375C699.257 79.2812 698.585 79.1719 697.71 79.1094C696.866 79.0156 696.132 78.9687 695.507 78.9687C693.663 78.9687 691.866 79.2031 690.116 79.6719C688.398 80.1406 686.851 80.9062 685.476 81.9687C684.101 83 683.007 84.375 682.194 86.0937C681.413 87.7812 681.023 89.8594 681.023 92.3281V119H666.726V66.5937H677.554L679.663 75.4062H680.366C681.398 73.625 682.679 72 684.21 70.5312C685.773 69.0312 687.538 67.8437 689.507 66.9687C691.507 66.0625 693.663 65.6094 695.976 65.6094ZM731.929 65.6094C736.773 65.6094 740.944 66.5469 744.444 68.4219C747.944 70.2656 750.648 72.9531 752.554 76.4844C754.46 80.0156 755.413 84.3281 755.413 89.4219V96.3594H721.616C721.773 100.391 722.976 103.562 725.226 105.875C727.507 108.156 730.663 109.297 734.694 109.297C738.038 109.297 741.101 108.953 743.882 108.266C746.663 107.578 749.523 106.547 752.46 105.172V116.234C749.866 117.516 747.148 118.453 744.304 119.047C741.491 119.641 738.069 119.937 734.038 119.937C728.788 119.937 724.132 118.969 720.069 117.031C716.038 115.094 712.866 112.141 710.554 108.172C708.273 104.203 707.132 99.2031 707.132 93.1719C707.132 87.0469 708.163 81.9531 710.226 77.8906C712.319 73.7969 715.226 70.7344 718.944 68.7031C722.663 66.6406 726.991 65.6094 731.929 65.6094ZM732.023 75.7812C729.241 75.7812 726.929 76.6719 725.085 78.4531C723.273 80.2344 722.226 83.0312 721.944 86.8437H742.007C741.976 84.7187 741.585 82.8281 740.835 81.1719C740.116 79.5156 739.023 78.2031 737.554 77.2344C736.116 76.2656 734.273 75.7812 732.023 75.7812Z" fill="#172B4D"/>
<path fill-rule="evenodd" clip-rule="evenodd" d="M88.4045 41.0795C88.4045 28.475 98.2942 18.2373 110.504 18.2373H141.444L132.604 36.4883V82.1442C132.604 107.353 112.825 127.743 88.4045 127.743H67.1609L49.1494 143.741C47.4643 145.253 45.2543 146.08 43.0443 145.994C17.4083 144.91 5.52953 131.907 0.722786 124.235C-0.934713 121.583 0.391286 118.047 3.34716 117.277L43.0995 107.011C39.5635 104.273 35.9999 101.279 32.3534 97.6575C18.2646 83.6841 8.84453 64.8343 8.84453 44.6442C8.84453 32.8381 11.4413 21.6594 16.027 11.6499C17.6293 8.14227 22.5189 8.34189 24.0383 11.9065C35.0883 37.9141 59.564 56.2506 88.4045 58.0187V41.0795ZM106.084 41.0795C106.084 43.589 108.073 45.6423 110.504 45.6423C112.935 45.6423 114.924 43.589 114.924 41.0795C114.924 38.57 112.935 36.5168 110.504 36.5168C108.073 36.5168 106.084 38.57 106.084 41.0795Z" fill="#172B4D"/>
<path d="M79.5508 54.6455C84.4919 54.6318 82.5098 53.2875 76.2036 41.0795C69.8974 28.8716 66.5531 17.0396 64.6194 3.95025C64.0392 0.100445 59.3706 -1.41096 56.9396 1.58333C51.1108 8.68409 41.7133 20.412 39.6392 28.8716C37.5651 37.3311 74.6096 54.6591 79.5508 54.6455Z" fill="#00BE6D"/>
</svg>
